<?xml version="1.0" encoding="UTF-8"?>
<!DOCTYPE svg PUBLIC "-//W3C//DTD SVG 1.1//EN" "http://www.w3.org/Graphics/SVG/1.1/DTD/svg11.dtd">
<svg xmlns="http://www.w3.org/2000/svg" version="1.1" width="1088px" height="1622px" style="shape-rendering:geometricPrecision; text-rendering:geometricPrecision; image-rendering:optimizeQuality; fill-rule:evenodd; clip-rule:evenodd" xmlns:xlink="http://www.w3.org/1999/xlink">
<g><path style="opacity:0.991" fill="#fefffe" d="M 307.5,106.5 C 382.5,106.5 457.5,106.5 532.5,106.5C 533.814,303.162 533.814,499.829 532.5,696.5C 495.977,703.992 472.81,725.659 463,761.5C 456.64,802.946 471.806,833.779 508.5,854C 516.808,857.744 525.474,860.244 534.5,861.5C 534.825,1076.17 534.325,1290.84 533,1505.5C 529.121,1513.36 522.954,1515.86 514.5,1513C 512.667,1511.83 511.167,1510.33 510,1508.5C 510.656,1385.78 485.99,1268.45 436,1156.5C 410.585,1092.63 377.252,1033.63 336,979.5C 304.93,937.763 269.097,900.597 228.5,868C 194.657,841.732 157.657,820.566 117.5,804.5C 170.174,773.192 216.674,734.192 257,687.5C 298.806,642.03 334.806,592.363 365,538.5C 404.041,462.295 419.041,381.629 410,296.5C 399.732,219.018 364.232,156.185 303.5,108C 305.058,107.79 306.391,107.29 307.5,106.5 Z"/></g>
<g><path style="opacity:0.991" fill="#fefffe" d="M 554.5,106.5 C 630.878,106.012 707.211,106.512 783.5,108C 722.768,156.185 687.268,219.018 677,296.5C 667.012,395.543 688.345,487.209 741,571.5C 780.081,631.617 825.581,686.784 877.5,737C 905.857,762.676 936.524,785.176 969.5,804.5C 895.793,834.926 833.293,880.593 782,941.5C 738.545,991.027 702.545,1045.69 674,1105.5C 650.624,1154.59 630.29,1204.92 613,1256.5C 588.41,1338.71 576.41,1422.71 577,1508.5C 571.855,1514.66 565.688,1515.82 558.5,1512C 556.19,1510.36 554.69,1508.2 554,1505.5C 552.675,1290.84 552.175,1076.17 552.5,861.5C 582.862,857.287 605.029,841.621 619,814.5C 634.496,774.984 626.33,741.151 594.5,713C 582.204,704.188 568.537,698.688 553.5,696.5C 553.186,499.828 553.52,303.161 554.5,106.5 Z"/></g>
</svg>
